<?xml version="1.0" standalone="no"?>
<!DOCTYPE svg PUBLIC "-//W3C//DTD SVG 20010904//EN"
 "http://www.w3.org/TR/2001/REC-SVG-20010904/DTD/svg10.dtd">
<svg version="1.0" xmlns="http://www.w3.org/2000/svg"
 width="500.000000pt" height="500.000000pt" viewBox="0 0 500.000000 500.000000"
 preserveAspectRatio="xMidYMid meet">
<metadata>
Created by potrace 1.14, written by Peter Selinger 2001-2017
</metadata>
<g transform="translate(0.000000,500.000000) scale(0.100000,-0.100000)"
fill="#000000" stroke="none">
<path d="M2345 4020 c-189 -28 -408 -128 -549 -251 -171 -150 -309 -362 -351
-539 -2 -8 -11 -42 -19 -76 -42 -159 -42 -307 0 -469 9 -33 17 -64 18 -70 14
-62 62 -167 119 -260 146 -237 435 -455 667 -501 14 -2 31 -7 38 -9 8 -3 37
-8 65 -11 29 -4 55 -11 58 -16 18 -28 -30 -220 -80 -323 -22 -45 -64 -107 -96
-142 l-57 -63 57 -62 c111 -123 211 -321 241 -480 9 -46 20 -92 24 -103 5 -15
6 308 0 581 0 6 -11 16 -25 22 -15 7 -32 26 -39 44 -17 41 -5 80 36 111 l30
24 0 196 c1 185 6 232 25 213 4 -4 8 -97 9 -207 l1 -199 36 -33 c48 -42 54
-73 25 -117 -13 -19 -32 -37 -43 -40 -19 -5 -20 -14 -21 -307 0 -167 1 -301 4
-298 2 2 15 56 28 120 13 64 31 133 40 153 9 20 21 48 27 62 28 62 114 191
169 252 l59 68 -43 47 c-24 27 -56 65 -71 85 -51 70 -106 234 -120 365 l-5 42
47 7 c241 35 459 143 626 310 86 86 105 110 158 195 83 133 136 279 162 444 9
57 6 219 -5 273 -5 26 -12 59 -14 74 -13 78 -81 257 -133 349 -128 227 -324
390 -581 483 -78 28 -91 31 -197 52 -75 14 -237 16 -320 4z"/>
</g>
</svg>
